<svg preserveAspectRatio="none" overflow="visible" style="display: block;" width="14" height="14" viewBox="0 0 14 14" fill="none" xmlns="http://www.w3.org/2000/svg">
<g id="Solid/Devices/Video" opacity="0.3">
<path id="Icon" fill-rule="evenodd" clip-rule="evenodd" d="M4.06372 3.39147C5.43618 3.26876 6.8173 3.27947 8.18768 3.42346L8.54219 3.46071C9.21881 3.5318 9.76339 4.04502 9.87666 4.713L11.789 3.69698C11.9186 3.62812 12.0741 3.62883 12.2031 3.69887C12.3321 3.7689 12.4173 3.89893 12.4301 4.04512L12.4447 4.2107C12.6074 6.06667 12.6074 7.93333 12.4447 9.7893L12.4301 9.95488C12.4173 10.1011 12.3321 10.2311 12.2031 10.3011C12.0741 10.3712 11.9186 10.3719 11.789 10.303L9.87666 9.287C9.76339 9.95498 9.21882 10.4682 8.54219 10.5393L8.18769 10.5765C6.8173 10.7205 5.43618 10.7312 4.06372 10.6085L3.14102 10.526C2.44574 10.4639 1.88398 9.93271 1.783 9.242C1.56563 7.75524 1.56563 6.24477 1.783 4.758C1.88398 4.0673 2.44574 3.53614 3.14102 3.47398L4.06372 3.39147ZM9.98457 8.38053C10.0314 8.38788 10.0778 8.40301 10.1219 8.42649L11.6124 9.21834C11.7181 7.74134 11.7181 6.25866 11.6124 4.78166L10.1219 5.57351C10.0778 5.59699 10.0314 5.61212 9.98457 5.61947C10.0663 6.53801 10.0663 7.46199 9.98457 8.38053Z" fill="white"/>
</g>
</svg>
